<svg width="79" height="46" viewBox="0 0 79 46" fill="none" xmlns="http://www.w3.org/2000/svg">
<g id="Group">
<path id="Vector" fill-rule="evenodd" clip-rule="evenodd" d="M9.27 13.8908C9.03 13.8908 8.97 13.7708 9.09 13.5908L10.35 11.9708C10.47 11.7908 10.77 11.6708 11.01 11.6708H32.37C32.61 11.6708 32.67 11.8508 32.55 12.0308L31.53 13.5908C31.41 13.7708 31.11 13.9508 30.93 13.9508L9.27 13.8908Z" fill="#00ACD7"/>
<path id="Vector_2" fill-rule="evenodd" clip-rule="evenodd" d="M0.24 19.4008C0 19.4008 -0.06 19.2808 0.06 19.1008L1.32 17.4808C1.44 17.3008 1.74 17.1808 1.98 17.1808H29.26C29.5 17.1808 29.62 17.3608 29.56 17.5408L29.08 18.9808C29.02 19.2208 28.78 19.3408 28.54 19.3408L0.24 19.4008Z" fill="#00ACD7"/>
<path id="Vector_3" fill-rule="evenodd" clip-rule="evenodd" d="M14.72 24.9008C14.48 24.9008 14.42 24.7208 14.54 24.5408L15.38 23.0408C15.5 22.8608 15.74 22.6808 15.98 22.6808H27.95C28.19 22.6808 28.31 22.8608 28.31 23.1008L28.19 24.5408C28.19 24.7808 27.95 24.9608 27.77 24.9608L14.72 24.9008Z" fill="#00ACD7"/>
<path id="Vector_4" fill-rule="evenodd" clip-rule="evenodd" d="M76.82 12.8108C73.05 13.7708 70.48 14.4908 66.77 15.4408C65.87 15.6808 65.81 15.7408 65.03 14.8408C64.13 13.8208 63.47 13.1708 62.22 12.5708C58.45 10.7208 54.8 11.2508 51.39 13.4708C47.32 16.1008 45.23 19.9908 45.29 24.8408C45.35 29.6308 48.64 33.5708 53.37 34.2308C57.44 34.7708 60.85 33.3308 63.54 30.2808C64.08 29.6208 64.56 28.9008 65.16 28.0708C63.01 28.0708 60.31 28.0708 53.61 28.0708C52.35 28.0708 52.05 27.2908 52.47 26.2808C53.25 24.4308 54.68 21.3108 55.52 19.7608C55.7 19.4008 56.12 18.8008 57.02 18.8008H78.8C78.68 20.4208 78.68 22.0308 78.44 23.6508C77.78 27.9608 76.17 31.9108 73.53 35.3808C69.22 41.0608 63.6 44.5908 56.48 45.5508C50.62 46.3308 45.17 45.1908 40.39 41.6008C35.96 38.2508 33.45 33.8208 32.79 28.3208C32.01 21.8008 33.93 15.9408 37.88 10.7908C42.13 5.23081 47.75 1.70081 54.63 0.440814C60.25 -0.579186 65.64 0.0808146 70.48 3.37081C73.65 5.46081 75.92 8.34081 77.42 11.8108C77.78 12.3408 77.54 12.6308 76.82 12.8108Z" fill="#00ACD7"/>
</g>
</svg>
