<?xml version="1.0" encoding="utf-8"?>
<!-- Generator: Adobe Illustrator 24.1.1, SVG Export Plug-In . SVG Version: 6.00 Build 0)  -->
<svg version="1.1" id="indeed" xmlns="http://www.w3.org/2000/svg" xmlns:xlink="http://www.w3.org/1999/xlink" x="0px" y="0px"
	 viewBox="0 0 512 512" style="enable-background:new 0 0 512 512;" xml:space="preserve">
<g>
	<path d="M316.2,219.9c-51.1,26.2-108.4-22.7-90.6-77.3c17.9-54.7,93-60.3,118.8-8.8C360.4,165.3,347.9,204,316.2,219.9L316.2,219.9
		z M247.5,12.2C300.2-7,360.4-6,405.5,33.2c9.5,7.8,17,17.8,21.8,29.2c4.5,14.7-16-1.5-18.8-3.6c-14.2-9.7-29.6-17.6-45.9-23.4
		c-88.8-27.1-172.8,22.3-224.7,99.3c-21.2,33.9-37.3,70.8-48,109.3c-1,4.7-2.5,9.3-4.5,13.8c-2.3,4.3-1.1-11.8-1.1-12.2
		c1.9-16.1,5-32.1,9.2-47.8C117.6,113.9,170.9,44.1,247.5,12.2L247.5,12.2z M248.3,460v-187c5.3,0.6,10.3,0.8,15.7,0.8
		c24.3,0.1,48-6.6,68.8-19.1V460c0,17.6-3.3,30.5-11.2,39c-7.9,8.7-19.1,13.4-30.9,13c-11.6,0.4-22.7-4.3-30.5-13
		C252.2,490.4,248.2,477.4,248.3,460L248.3,460z"/>
</g>
</svg>
