<svg width="52" height="47" viewBox="0 0 52 47" fill="none" xmlns="http://www.w3.org/2000/svg">
<path id="react-logo" fill-rule="evenodd" clip-rule="evenodd" d="M52 23.5064C52 20.0103 47.6878 16.6989 41.0736 14.6416C42.6012 7.79969 41.9199 2.35794 38.9323 0.614179C38.2425 0.206155 37.4385 0.0128811 36.5583 0.0128811V2.41378C37.0449 2.41378 37.4385 2.51256 37.7686 2.69295C39.2116 3.53047 39.8337 6.72594 39.347 10.8362C39.2285 11.8456 39.0381 12.9107 38.8053 13.9973C36.7275 13.4819 34.4593 13.0825 32.0768 12.8248C30.6465 10.8362 29.1611 9.02805 27.6673 7.4475C31.1204 4.18331 34.362 2.40089 36.5667 2.40089V-3.8147e-06C33.651 -3.8147e-06 29.8382 2.10883 25.9788 5.76816C22.1195 2.13031 18.3066 0.042946 15.391 0.042946V2.44384C17.583 2.44384 20.8372 4.21767 24.2946 7.45609C22.8092 9.03664 21.3281 10.8319 19.9189 12.8248C17.5238 13.0825 15.2555 13.4819 13.1777 14.0059C12.9323 12.9322 12.7546 11.8885 12.6276 10.8878C12.1283 6.77748 12.7461 3.58201 14.1764 2.73161C14.4938 2.53833 14.9085 2.45243 15.3952 2.45243V0.055831C14.5065 0.055831 13.6982 0.249105 13 0.657129C10.0208 2.40089 9.35221 7.83404 10.8926 14.6545C4.29102 16.7161 0 20.0189 0 23.5064C0 27.0026 4.31217 30.314 10.9264 32.3713C9.39876 39.2132 10.0801 44.6549 13.0677 46.3987C13.7575 46.8067 14.5615 47 15.4544 47C18.3701 47 22.1829 44.8912 26.0423 41.2318C29.9017 44.8697 33.7145 46.957 36.6302 46.957C37.5189 46.957 38.3271 46.7638 39.0254 46.3557C42.0046 44.612 42.6732 39.1788 41.1328 32.3584C47.709 30.3054 52 26.9897 52 23.5064ZM30.8327 23.5064C30.8327 20.792 28.666 18.5887 25.9873 18.5887C23.3128 18.5887 21.1419 20.7877 21.1419 23.5064C21.1419 26.2252 23.3086 28.4242 25.9873 28.4242C28.666 28.4199 30.8327 26.2209 30.8327 23.5064ZM38.2002 16.3295C37.8066 17.7168 37.32 19.147 36.7699 20.5773C36.334 19.7183 35.8812 18.855 35.3818 17.996C34.8952 17.137 34.3747 16.2952 33.8542 15.4791C35.3607 15.7067 36.8122 15.9859 38.2002 16.3295ZM33.3464 27.7885C32.5212 29.2402 31.6706 30.6189 30.7904 31.8988C29.2119 32.0406 27.6123 32.1136 26 32.1136C24.4004 32.1136 22.8008 32.0363 21.2308 31.9074C20.3506 30.6275 19.4915 29.2617 18.6663 27.8186C17.8623 26.4098 17.1302 24.9796 16.4616 23.5365C17.1175 22.0934 17.8623 20.6546 18.6536 19.2458C19.4788 17.7941 20.3294 16.4154 21.2096 15.1355C22.7881 14.9938 24.3877 14.9208 26 14.9208C27.5996 14.9208 29.1992 14.9981 30.7692 15.1269C31.6494 16.4068 32.5085 17.7726 33.3337 19.2158C34.1377 20.6245 34.8698 22.0547 35.5384 23.4978C34.8698 24.9367 34.1419 26.3755 33.3464 27.7885ZM36.7699 26.3884C37.3411 27.8315 37.8278 29.2703 38.234 30.6705C36.846 31.0141 35.3818 31.3061 33.8669 31.5295C34.3874 30.7005 34.9036 29.8501 35.3945 28.9782C35.877 28.1193 36.334 27.2474 36.7699 26.3884ZM26.0212 37.8646C25.0352 36.8338 24.0492 35.6827 23.0758 34.4243C24.028 34.4672 25.0055 34.5016 25.9915 34.5016C26.986 34.5016 27.972 34.4801 28.9368 34.4243C27.9805 35.6827 26.9945 36.8338 26.0212 37.8646ZM18.1374 31.5295C16.6309 31.3018 15.1794 31.0227 13.7913 30.6791C14.1849 29.2918 14.6716 27.8616 15.2217 26.4313C15.6576 27.2903 16.1104 28.1536 16.6097 29.0126C17.109 29.8759 17.6169 30.7134 18.1374 31.5295ZM25.9661 9.14402C26.9521 10.1748 27.9382 11.3259 28.9115 12.5843C27.9593 12.5413 26.9818 12.507 25.9958 12.507C25.0013 12.507 24.0153 12.5285 23.0505 12.5843C24.0068 11.3259 24.9928 10.1748 25.9661 9.14402ZM18.1247 15.4791C17.6042 16.308 17.0879 17.1585 16.597 18.0303C16.1104 18.8893 15.6533 19.7526 15.2174 20.6116C14.6462 19.1685 14.1595 17.7297 13.7533 16.3295C15.1455 15.9945 16.6097 15.7067 18.1247 15.4791ZM8.53125 28.9482C4.77767 27.3247 2.35286 25.1944 2.35286 23.5064C2.35286 21.8185 4.7819 19.6753 8.53125 18.0647C9.44108 17.6653 10.4398 17.3131 11.4681 16.9781C12.0732 19.0869 12.8688 21.2816 13.8548 23.5279C12.8815 25.7656 12.0944 27.9475 11.502 30.0477C10.4525 29.7127 9.45378 29.3476 8.53125 28.9482ZM14.2357 44.3199C12.7926 43.4824 12.1706 40.2869 12.6572 36.1766C12.7757 35.1673 12.9661 34.1022 13.1989 33.0155C15.2767 33.5309 17.5449 33.9304 19.9274 34.1881C21.3577 36.1766 22.8431 37.9848 24.3369 39.5654C20.8796 42.8253 17.638 44.612 15.4333 44.612C14.9551 44.5991 14.5531 44.5046 14.2357 44.3199ZM39.3766 36.1251C39.876 40.2354 39.2581 43.4309 37.8278 44.2813C37.5104 44.4745 37.0957 44.5604 36.6091 44.5604C34.417 44.5604 31.1628 42.7866 27.7054 39.5482C29.1908 37.9676 30.6719 36.1723 32.0811 34.1795C34.4762 33.9218 36.7445 33.5223 38.8223 32.9941C39.0677 34.0807 39.2581 35.1244 39.3766 36.1251ZM43.4561 28.9482C42.5462 29.3476 41.5475 29.6998 40.5192 30.0348C39.9141 27.926 39.1185 25.7312 38.1325 23.485C39.1058 21.2473 39.8929 19.0654 40.4854 16.9652C41.5348 17.3002 42.5293 17.6653 43.4645 18.0604C47.2181 19.6839 49.6429 21.8142 49.6429 23.5021C49.6344 25.1944 47.2096 27.3333 43.4561 28.9482Z" fill="#00ACD7"/>
</svg>
