<svg width="136" height="47" viewBox="0 0 136 47" fill="none" xmlns="http://www.w3.org/2000/svg">
<g id="go react">
<path id="react logo" fill-rule="evenodd" clip-rule="evenodd" d="M136 23.5064C136 20.0103 131.688 16.6989 125.074 14.6416C126.601 7.79969 125.92 2.35795 122.932 0.614183C122.243 0.206159 121.438 0.0128849 120.558 0.0128849V2.41378C121.045 2.41378 121.438 2.51257 121.769 2.69295C123.212 3.53048 123.834 6.72594 123.347 10.8362C123.229 11.8456 123.038 12.9107 122.805 13.9974C120.728 13.482 118.459 13.0825 116.077 12.8248C114.646 10.8362 113.161 9.02805 111.667 7.4475C115.12 4.18331 118.362 2.4009 120.567 2.4009V0C117.651 0 113.838 2.10884 109.979 5.76816C106.119 2.13031 102.307 0.0429498 99.391 0.0429498V2.44385C101.583 2.44385 104.837 4.21767 108.295 7.45609C106.809 9.03664 105.328 10.8319 103.919 12.8248C101.524 13.0825 99.2555 13.482 97.1777 14.0059C96.9323 12.9322 96.7546 11.8885 96.6276 10.8878C96.1283 6.77748 96.7461 3.58202 98.1764 2.73161C98.4938 2.53834 98.9085 2.45244 99.3952 2.45244V0.0558348C98.5065 0.0558348 97.6982 0.249109 97 0.657132C94.0208 2.4009 93.3522 7.83405 94.8926 14.6545C88.291 16.7161 84 20.0189 84 23.5064C84 27.0026 88.3122 30.314 94.9264 32.3713C93.3988 39.2132 94.0801 44.6549 97.0677 46.3987C97.7575 46.8067 98.5615 47 99.4544 47C102.37 47 106.183 44.8912 110.042 41.2318C113.902 44.8697 117.715 46.9571 120.63 46.9571C121.519 46.9571 122.327 46.7638 123.025 46.3558C126.005 44.612 126.673 39.1788 125.133 32.3584C131.709 30.3054 136 26.9897 136 23.5064ZM114.833 23.5064C114.833 20.792 112.666 18.5887 109.987 18.5887C107.313 18.5887 105.142 20.7877 105.142 23.5064C105.142 26.2252 107.309 28.4242 109.987 28.4242C112.666 28.4199 114.833 26.2209 114.833 23.5064ZM122.2 16.3295C121.807 17.7168 121.32 19.147 120.77 20.5773C120.334 19.7183 119.881 18.855 119.382 17.996C118.895 17.137 118.375 16.2952 117.854 15.4791C119.361 15.7068 120.812 15.9859 122.2 16.3295ZM117.346 27.7885C116.521 29.2402 115.671 30.6189 114.79 31.8988C113.212 32.0406 111.612 32.1136 110 32.1136C108.4 32.1136 106.801 32.0363 105.231 31.9074C104.351 30.6275 103.492 29.2617 102.666 27.8186C101.862 26.4098 101.13 24.9796 100.462 23.5365C101.118 22.0934 101.862 20.6546 102.654 19.2458C103.479 17.7941 104.329 16.4154 105.21 15.1355C106.788 14.9938 108.388 14.9208 110 14.9208C111.6 14.9208 113.199 14.9981 114.769 15.1269C115.649 16.4068 116.508 17.7726 117.334 19.2158C118.138 20.6245 118.87 22.0547 119.538 23.4979C118.87 24.9367 118.142 26.3755 117.346 27.7885ZM120.77 26.3884C121.341 27.8315 121.828 29.2703 122.234 30.6705C120.846 31.0141 119.382 31.3061 117.867 31.5295C118.387 30.7005 118.904 29.8501 119.395 28.9783C119.877 28.1193 120.334 27.2474 120.77 26.3884ZM110.021 37.8646C109.035 36.8338 108.049 35.6827 107.076 34.4243C108.028 34.4672 109.006 34.5016 109.992 34.5016C110.986 34.5016 111.972 34.4801 112.937 34.4243C111.98 35.6827 110.994 36.8338 110.021 37.8646ZM102.137 31.5295C100.631 31.3018 99.1794 31.0227 97.7913 30.6791C98.1849 29.2918 98.6716 27.8616 99.2217 26.4313C99.6576 27.2903 100.11 28.1536 100.61 29.0126C101.109 29.8759 101.617 30.7134 102.137 31.5295ZM109.966 9.14402C110.952 10.1748 111.938 11.3259 112.911 12.5843C111.959 12.5414 110.982 12.507 109.996 12.507C109.001 12.507 108.015 12.5285 107.05 12.5843C108.007 11.3259 108.993 10.1748 109.966 9.14402ZM102.125 15.4791C101.604 16.3081 101.088 17.1585 100.597 18.0303C100.11 18.8893 99.6533 19.7526 99.2174 20.6116C98.6462 19.1685 98.1595 17.7297 97.7533 16.3295C99.1455 15.9945 100.61 15.7068 102.125 15.4791ZM92.5313 28.9482C88.7777 27.3247 86.3529 25.1944 86.3529 23.5064C86.3529 21.8185 88.7819 19.6753 92.5313 18.0647C93.4411 17.6653 94.4398 17.3131 95.4681 16.9781C96.0732 19.0869 96.8688 21.2816 97.8548 23.5279C96.8815 25.7656 96.0944 27.9475 95.502 30.0477C94.4525 29.7127 93.4538 29.3476 92.5313 28.9482ZM98.2357 44.3199C96.7926 43.4824 96.1706 40.2869 96.6572 36.1766C96.7757 35.1673 96.9661 34.1022 97.1989 33.0155C99.2767 33.5309 101.545 33.9304 103.927 34.1881C105.358 36.1766 106.843 37.9848 108.337 39.5654C104.88 42.8253 101.638 44.612 99.4333 44.612C98.9551 44.5991 98.5531 44.5046 98.2357 44.3199ZM123.377 36.1251C123.876 40.2354 123.258 43.4309 121.828 44.2813C121.51 44.4745 121.096 44.5605 120.609 44.5605C118.417 44.5605 115.163 42.7866 111.705 39.5482C113.191 37.9677 114.672 36.1723 116.081 34.1795C118.476 33.9218 120.744 33.5223 122.822 32.9941C123.068 34.0807 123.258 35.1244 123.377 36.1251ZM127.456 28.9482C126.546 29.3476 125.548 29.6998 124.519 30.0348C123.914 27.926 123.118 25.7312 122.132 23.485C123.106 21.2473 123.893 19.0654 124.485 16.9652C125.535 17.3002 126.529 17.6653 127.465 18.0604C131.218 19.6839 133.643 21.8142 133.643 23.5021C133.634 25.1944 131.21 27.3333 127.456 28.9482Z" fill="#00ACD7"/>
<g id="Group">
<path id="Vector" fill-rule="evenodd" clip-rule="evenodd" d="M9.27 14.8908C9.03 14.8908 8.97 14.7708 9.09 14.5908L10.35 12.9708C10.47 12.7908 10.77 12.6708 11.01 12.6708H32.37C32.61 12.6708 32.67 12.8508 32.55 13.0308L31.53 14.5908C31.41 14.7708 31.11 14.9508 30.93 14.9508L9.27 14.8908Z" fill="#00ACD7"/>
<path id="Vector 2" fill-rule="evenodd" clip-rule="evenodd" d="M0.24 20.4008C0 20.4008 -0.06 20.2808 0.06 20.1008L1.32 18.4808C1.44 18.3008 1.74 18.1808 1.98 18.1808H29.26C29.5 18.1808 29.62 18.3608 29.56 18.5408L29.08 19.9808C29.02 20.2208 28.78 20.3408 28.54 20.3408L0.24 20.4008Z" fill="#00ACD7"/>
<path id="Vector 3" fill-rule="evenodd" clip-rule="evenodd" d="M14.72 25.9008C14.48 25.9008 14.42 25.7208 14.54 25.5408L15.38 24.0408C15.5 23.8608 15.74 23.6808 15.98 23.6808H27.95C28.19 23.6808 28.31 23.8608 28.31 24.1008L28.19 25.5408C28.19 25.7808 27.95 25.9608 27.77 25.9608L14.72 25.9008Z" fill="#00ACD7"/>
<path id="Vector 4" fill-rule="evenodd" clip-rule="evenodd" d="M76.82 13.8108C73.05 14.7708 70.48 15.4908 66.77 16.4408C65.87 16.6808 65.81 16.7408 65.03 15.8408C64.13 14.8208 63.47 14.1708 62.22 13.5708C58.45 11.7208 54.8 12.2508 51.39 14.4708C47.32 17.1008 45.23 20.9908 45.29 25.8408C45.35 30.6308 48.64 34.5708 53.37 35.2308C57.44 35.7708 60.85 34.3308 63.54 31.2808C64.08 30.6208 64.56 29.9008 65.16 29.0708C63.01 29.0708 60.31 29.0708 53.61 29.0708C52.35 29.0708 52.05 28.2908 52.47 27.2808C53.25 25.4308 54.68 22.3108 55.52 20.7608C55.7 20.4008 56.12 19.8008 57.02 19.8008H78.8C78.68 21.4208 78.68 23.0308 78.44 24.6508C77.78 28.9608 76.17 32.9108 73.53 36.3808C69.22 42.0608 63.6 45.5908 56.48 46.5508C50.62 47.3308 45.17 46.1908 40.39 42.6008C35.96 39.2508 33.45 34.8208 32.79 29.3208C32.01 22.8008 33.93 16.9408 37.88 11.7908C42.13 6.23082 47.75 2.70082 54.63 1.44082C60.25 0.420818 65.64 1.08082 70.48 4.37082C73.65 6.46082 75.92 9.34082 77.42 12.8108C77.78 13.3408 77.54 13.6308 76.82 13.8108Z" fill="#00ACD7"/>
</g>
</g>
</svg>
